UNKNOWN
version=1
nRows=21
nColumns=19
inDegrees=no
endheader
time	rF_x	rF_y	rF_z	rCOP_x	rCOP_y	rCOP_z	lF_x	lF_y	lF_z	lCOP_x	lCOP_y	lCOP_z	rT_x	rT_y	rT_z	lT_x	lT_y	lT_z
      5.93700000	      0.00000000	      0.00000000	      0.00000000	      0.73944400	      0.01150000	     -0.45795300	      6.78833000	     36.13465100	      6.15168500	      1.27639800	      0.01150000	     -0.53130500	      0.00000000	      0.00000000	      0.00000000	      0.00000000	      0.63711800	      0.00000000
      5.93750000	      0.00000000	      0.00000000	      0.00000000	      0.73915900	      0.01150000	     -0.45798100	      7.46304800	     40.24483400	      6.52089700	      1.27565800	      0.01150000	     -0.53123000	      0.00000000	      0.00000000	      0.00000000	      0.00000000	      0.61638800	      0.00000000
      5.93800000	      0.00000000	      0.00000000	      0.00000000	      0.73887500	      0.01150000	     -0.45800800	      8.16361600	     44.54670100	      6.90602500	      1.27491700	      0.01150000	     -0.53115500	      0.00000000	      0.00000000	      0.00000000	      0.00000000	      0.59928500	      0.00000000
      5.93850000	      0.00000000	      0.00000000	      0.00000000	      0.73859000	      0.01150000	     -0.45803600	      8.88973800	     49.04355900	      7.30691500	      1.27417700	      0.01150000	     -0.53108100	      0.00000000	      0.00000000	      0.00000000	      0.00000000	      0.58564400	      0.00000000
      5.93900000	      0.00000000	      0.00000000	      0.00000000	      0.73830600	      0.01150000	     -0.45806400	      9.64101400	     53.73849600	      7.72339400	      1.27343600	      0.01150000	     -0.53100600	      0.00000000	      0.00000000	      0.00000000	      0.00000000	      0.57529900	      0.00000000
      5.93950000	      0.00000000	      0.00000000	      0.00000000	      0.73802100	      0.01150000	     -0.45809200	     10.41694000	     58.63435500	      8.15526800	      1.27269600	      0.01150000	     -0.53093100	      0.00000000	      0.00000000	      0.00000000	      0.00000000	      0.56809300	      0.00000000
      5.94000000	      0.00000000	      0.00000000	      0.00000000	      0.73773700	      0.01150000	     -0.45811900	     11.21689900	     63.73371600	      8.60231100	      1.27195600	      0.01150000	     -0.53085600	      0.00000000	      0.00000000	      0.00000000	      0.00000000	      0.56388100	      0.00000000
      5.94050000	      0.00000000	      0.00000000	      0.00000000	      0.73761200	      0.01150000	     -0.45811900	     12.04014200	     69.03886800	      9.06425000	      1.27100400	      0.01150000	     -0.53077700	      0.00000000	      0.00000000	      0.00000000	      0.00000000	      0.56253800	      0.00000000
      5.94100000	      0.00000000	      0.00000000	      0.00000000	      0.73748800	      0.01150000	     -0.45811800	     12.88577700	     74.55178400	      9.54074800	      1.27179200	      0.01150000	     -0.53067900	      0.00000000	      0.00000000	      0.00000000	      0.00000000	      0.56394800	      0.00000000
      5.94150000	      0.00000000	      0.00000000	      0.00000000	      0.73736300	      0.01150000	     -0.45811800	     13.75275100	     80.27409700	     10.03139300	      1.27257900	      0.01150000	     -0.53058100	      0.00000000	      0.00000000	      0.00000000	      0.00000000	      0.56800800	      0.00000000
      5.94200000	      0.00000000	      0.00000000	      0.00000000	      0.73723900	      0.01150000	     -0.45811800	     14.63984400	     86.20707200	     10.53569100	      1.27336600	      0.01150000	     -0.53048300	      0.00000000	      0.00000000	      0.00000000	      0.00000000	      0.57462600	      0.00000000
      5.94250000	      0.00000000	      0.00000000	      0.00000000	      0.73711400	      0.01150000	     -0.45811700	     15.54566200	     92.35157500	     11.05307100	      1.27415400	      0.01150000	     -0.53038400	      0.00000000	      0.00000000	      0.00000000	      0.00000000	      0.58372000	      0.00000000
      5.94300000	      0.00000000	      0.00000000	      0.00000000	      0.73699000	      0.01150000	     -0.45811700	     16.46862400	     98.70804900	     11.58288300	      1.27494100	      0.01150000	     -0.53028600	      0.00000000	      0.00000000	      0.00000000	      0.00000000	      0.59521700	      0.00000000
      5.94350000	      0.00000000	      0.00000000	      0.00000000	      0.73686600	      0.01150000	     -0.45811700	     17.40695400	    105.27647900	     12.12441000	      1.27572900	      0.01150000	     -0.53018800	      0.00000000	      0.00000000	      0.00000000	      0.00000000	      0.60904100	      0.00000000
      5.94400000	      0.00000000	      0.00000000	      0.00000000	      0.73674100	      0.01150000	     -0.45811600	     18.35867600	    112.05636200	     12.67687200	      1.27651600	      0.01150000	     -0.53009000	      0.00000000	      0.00000000	      0.00000000	      0.00000000	      0.62510800	      0.00000000
      5.94450000	      0.00000000	      0.00000000	      0.00000000	      0.73661700	      0.01150000	     -0.45811600	     19.32161000	    119.04667700	     13.23944000	      1.27730300	      0.01150000	     -0.52999200	      0.00000000	      0.00000000	      0.00000000	      0.00000000	      0.64331400	      0.00000000
      5.94500000	      0.00000000	      0.00000000	      0.00000000	      0.73649200	      0.01150000	     -0.45811500	     20.29337100	    126.24587800	     13.81124300	      1.27809100	      0.01150000	     -0.52989400	      0.00000000	      0.00000000	      0.00000000	      0.00000000	      0.66353600	      0.00000000
      5.94550000	      0.00000000	      0.00000000	      0.00000000	      0.73636800	      0.01150000	     -0.45811500	     21.27137900	    133.65199000	     14.39137800	      1.27887800	      0.01150000	     -0.52979600	      0.00000000	      0.00000000	      0.00000000	      0.00000000	      0.68563300	      0.00000000
      5.94600000	      0.00000000	      0.00000000	      0.00000000	      0.73624300	      0.01150000	     -0.45811500	     22.25286700	    141.26276300	     14.97892300	      1.27966500	      0.01150000	     -0.52969800	      0.00000000	      0.00000000	      0.00000000	      0.00000000	      0.70944500	      0.00000000
      5.94650000	      0.00000000	      0.00000000	      0.00000000	      0.73611900	      0.01150000	     -0.45811400	     23.23489700	    149.07578600	     15.57294800	      1.28045300	      0.01150000	     -0.52960000	      0.00000000	      0.00000000	      0.00000000	      0.00000000	      0.73479200	      0.00000000
      5.94700000	      0.00000000	      0.00000000	      0.00000000	      0.73599500	      0.01150000	     -0.45811400	     24.21438800	    157.08850700	     16.17253500	      1.28124000	      0.01150000	     -0.52950200	      0.00000000	      0.00000000	      0.00000000	      0.00000000	      0.76148200	      0.00000000
